<svg width="90" height="94" viewBox="0 0 90 94" fill="none" xmlns="http://www.w3.org/2000/svg">
<path d="M35.55 13.5859C29.199 10.4189 20.3221 8.86752 8.43751 8.81244C7.31667 8.79653 6.21783 9.13789 5.28751 9.79099C4.52389 10.3301 3.89881 11.0569 3.46724 11.9075C3.03567 12.7581 2.81083 13.7064 2.81251 14.6691V67.1953C2.81251 70.746 5.23126 73.4246 8.43751 73.4246C20.9303 73.4246 33.4617 74.6436 40.9676 82.0535C41.0703 82.1553 41.1993 82.2234 41.3387 82.2493C41.4781 82.2751 41.6218 82.2576 41.7517 82.1989C41.8817 82.1403 41.9923 82.043 42.0698 81.9192C42.1472 81.7954 42.1882 81.6506 42.1875 81.5027V19.6114C42.1877 19.1939 42.1021 18.7811 41.9366 18.4011C41.771 18.021 41.5293 17.6825 41.2277 17.4083C39.5084 15.8732 37.5986 14.5874 35.55 13.5859ZM84.7125 9.78549C83.7817 9.13401 82.6828 8.79456 81.5625 8.81244C69.6779 8.86752 60.801 10.4115 54.45 13.5859C52.4015 14.5856 50.4912 15.8688 48.7705 17.401C48.4696 17.6755 48.2284 18.0142 48.0631 18.3942C47.8979 18.7742 47.8124 19.1867 47.8125 19.6041V81.499C47.8124 81.6412 47.8525 81.7801 47.9278 81.8985C48.003 82.0169 48.1101 82.1095 48.2355 82.1646C48.3609 82.2197 48.4991 82.2349 48.6327 82.2082C48.7664 82.1816 48.8895 82.1144 48.9867 82.0149C53.499 77.3333 61.418 73.4191 81.5695 73.4209C83.0614 73.4209 84.4921 72.8019 85.547 71.7002C86.6019 70.5984 87.1945 69.1041 87.1945 67.5459V14.6709C87.1966 13.7064 86.9712 12.7561 86.5384 11.9041C86.1055 11.052 85.4784 10.3244 84.7125 9.78549Z" fill="#969696"/>
</svg>
