<svg width="67" height="67" viewBox="0 0 67 67" fill="none" xmlns="http://www.w3.org/2000/svg">
<path fill-rule="evenodd" clip-rule="evenodd" d="M20.1 0C14.7691 0 9.65664 2.11767 5.88715 5.88715C2.11767 9.65664 0 14.7691 0 20.1L0 46.9C0 52.2309 2.11767 57.3434 5.88715 61.1128C9.65664 64.8823 14.7691 67 20.1 67H46.9C52.2309 67 57.3434 64.8823 61.1128 61.1128C64.8823 57.3434 67 52.2309 67 46.9V20.1C67 14.7691 64.8823 9.65664 61.1128 5.88715C57.3434 2.11767 52.2309 0 46.9 0L20.1 0ZM17.8667 33.5C17.8667 29.3538 19.5137 25.3774 22.4456 22.4456C25.3774 19.5137 29.3538 17.8667 33.5 17.8667C37.6462 17.8667 41.6226 19.5137 44.5544 22.4456C47.4863 25.3774 49.1333 29.3538 49.1333 33.5C49.1333 37.6462 47.4863 41.6226 44.5544 44.5544C41.6226 47.4863 37.6462 49.1333 33.5 49.1333C29.3538 49.1333 25.3774 47.4863 22.4456 44.5544C19.5137 41.6226 17.8667 37.6462 17.8667 33.5ZM49.1333 17.8667H53.6V13.4H49.1333V17.8667Z" fill="#929292"/>
</svg>
