<svg width="146" height="147" viewBox="0 0 146 147" fill="none" xmlns="http://www.w3.org/2000/svg">
<path d="M33.9596 21.4394C34.5961 21.7714 35.1297 22.2731 35.5021 22.8898C35.8745 23.5064 36.0715 24.2142 36.0714 24.9359C36.0714 31.0784 38.1728 34.6379 40.5922 38.1607C40.8216 38.4967 41.0615 38.8397 41.3118 39.1897C43.6217 42.4867 46.5 46.5817 46.5 52.4984C46.5 54.9115 46.028 57.3009 45.1108 59.5302C44.1937 61.7596 42.8494 63.7852 41.1547 65.4915C39.46 67.1978 37.4482 68.5513 35.234 69.4747C33.0198 70.3981 30.6466 70.8734 28.25 70.8734C25.8534 70.8734 23.4802 70.3981 21.266 69.4747C19.0518 68.5513 17.04 67.1978 15.3453 65.4915C13.6506 63.7852 12.3063 61.7596 11.3892 59.5302C10.472 57.3009 10 54.9115 10 52.4984C10 48.1777 10.438 43.4684 13.3841 38.2184C16.2624 33.0892 21.3411 27.7919 29.9134 21.7177C30.4981 21.3033 31.1845 21.0582 31.8979 21.0092C32.6113 20.9601 33.3244 21.1089 33.9596 21.4394ZM47.6576 39.2369C52.1931 36.2572 57.4192 34.5139 62.8245 34.1776C68.2299 33.8413 73.6294 34.9235 78.4947 37.3184C83.3601 39.7132 87.5247 43.3387 90.5811 47.8401C93.6376 52.3414 95.4811 57.5646 95.9314 62.9984H81.7016C76.5157 62.9984 71.5422 65.0726 67.8752 68.7648C64.2082 72.4569 62.1481 77.4645 62.1481 82.6859V97.0184C58.5168 96.7132 54.9664 95.7715 51.6569 94.2359C51.5735 96.8032 51.3962 99.6067 51.1355 102.547C54.674 103.865 58.3833 104.661 62.1481 104.909V116.811C62.1481 122.032 64.2082 127.04 67.8752 130.732C71.5422 134.424 76.5157 136.498 81.7016 136.498H115.594C120.78 136.498 125.754 134.424 129.421 130.732C133.088 127.04 135.148 122.032 135.148 116.811V82.6859C135.148 77.4645 133.088 72.4569 129.421 68.7648C125.754 65.0726 120.78 62.9984 115.594 62.9984H103.779C103.324 56.133 101.091 49.5073 97.301 43.7816C93.5111 38.0559 88.2972 33.4301 82.1788 30.365C76.0604 27.3 69.251 25.9028 62.4293 26.3126C55.6075 26.7224 49.0115 28.9249 43.2984 32.7007C43.7677 33.5092 44.2996 34.3177 44.8888 35.1734C45.0869 35.4709 45.3129 35.7929 45.5666 36.1394C46.1819 37.0109 46.9171 38.0399 47.6576 39.2369ZM115.6 70.8734C118.711 70.8734 121.695 72.118 123.896 74.3332C126.096 76.5485 127.332 79.5531 127.332 82.6859V116.811C127.332 119.944 126.096 122.948 123.896 125.164C121.695 127.379 118.711 128.623 115.6 128.623H81.7069C78.5953 128.623 75.6112 127.379 73.411 125.164C71.2108 122.948 69.9747 119.944 69.9747 116.811V104.652C78.4685 103.498 86.3509 99.5674 92.4108 93.465C98.4708 87.3625 102.373 79.4255 103.518 70.8734H115.6ZM69.9747 96.6877V82.6859C69.9747 79.5531 71.2108 76.5485 73.411 74.3332C75.6112 72.118 78.5953 70.8734 81.7069 70.8734H95.6081C94.5224 77.3225 91.4713 83.272 86.8775 87.8972C82.2837 92.5225 76.38 95.5945 69.9747 96.6877ZM10 90.7552C10 85.4894 10.4171 78.9532 12.6906 73.5667C17.0341 76.8217 22.4204 78.7484 28.25 78.7484C33.8608 78.7568 39.3233 76.9351 43.8199 73.5562C46.0881 78.9479 46.5 85.4947 46.5 90.7552C46.5 99.4859 45.1234 112.858 42.5997 124.093C41.3483 129.7 39.7527 135.007 37.7869 139.003C36.8119 140.998 35.6386 142.872 34.2047 144.305C32.7604 145.744 30.7633 146.998 28.2604 146.998C25.7576 146.998 23.7657 145.744 22.3214 144.3C20.8874 142.872 19.7142 140.998 18.7339 139.008C16.7681 135.007 15.1726 129.7 13.9107 124.098C11.3818 112.858 10 99.4859 10 90.7604" fill="#4E4C49"/>
</svg>
