<svg id="Camera--Streamline-Carbon.svg" xmlns="http://www.w3.org/2000/svg" viewBox="-0.5 -0.5 16 16" height="16" width="16"><desc>Camera Streamline Icon: https://streamlinehq.com</desc><defs></defs><title>camera</title><path d="M13.59375 12.1875H1.40625a0.46875 0.46875 0 0 1 -0.46875 -0.46875V3.75a0.46875 0.46875 0 0 1 0.46875 -0.46875h3.028125l0.8015625 -1.1953125A0.46875 0.46875 0 0 1 5.625 1.875h3.75a0.46875 0.46875 0 0 1 0.3890625 0.2109375L10.565624999999999 3.28125H13.59375a0.46875 0.46875 0 0 1 0.46875 0.46875v7.96875a0.46875 0.46875 0 0 1 -0.46875 0.46875ZM1.875 11.25h11.25V4.21875h-2.8125a0.46875 0.46875 0 0 1 -0.3890625 -0.2109375L9.121875000000001 2.8125h-3.24375l-0.8015625 1.1953125A0.46875 0.46875 0 0 1 4.6875 4.21875H1.875Z" stroke-width="1"></path><path d="M7.5 10.3125a2.8125 2.8125 0 1 1 2.8125 -2.8125 2.8125 2.8125 0 0 1 -2.8125 2.8125Zm0 -4.6875a1.875 1.875 0 1 0 1.875 1.875 1.875 1.875 0 0 0 -1.875 -1.875Z" stroke-width="1"></path><path id="_Transparent_Rectangle_" d="M0 0h15v15H0Z" fill="none" stroke-width="1"></path></svg>