<svg width="146" height="161" viewBox="0 0 146 161" fill="none" xmlns="http://www.w3.org/2000/svg">
<path d="M92.0256 95.5938L80.2087 108.625L86.6875 115.719L104.938 95.5938L86.6875 75.4688L80.2087 82.5628L92.0256 95.5938ZM53.9744 95.5938L65.7913 82.5628L59.3125 75.4688L41.0625 95.5938L59.3125 115.719L65.7913 108.625L53.9744 95.5938Z" fill="#4E4C49"/>
<path d="M41.0625 45.2812C43.5823 45.2812 45.625 43.0287 45.625 40.25C45.625 37.4713 43.5823 35.2188 41.0625 35.2188C38.5427 35.2188 36.5 37.4713 36.5 40.25C36.5 43.0287 38.5427 45.2812 41.0625 45.2812Z" fill="#4E4C49"/>
<path d="M27.375 45.2812C29.8948 45.2812 31.9375 43.0287 31.9375 40.25C31.9375 37.4713 29.8948 35.2188 27.375 35.2188C24.8552 35.2188 22.8125 37.4713 22.8125 40.25C22.8125 43.0287 24.8552 45.2812 27.375 45.2812Z" fill="#4E4C49"/>
<path d="M127.75 20.125H18.25C13.2176 20.125 9.125 24.6431 9.125 30.1875V130.812C9.125 136.362 13.2176 140.875 18.25 140.875H127.75C132.782 140.875 136.875 136.362 136.875 130.812V30.1875C136.875 24.6431 132.782 20.125 127.75 20.125ZM127.75 30.1875V50.3125H18.25V30.1875H127.75ZM18.25 130.812V60.375H127.75V130.812H18.25Z" fill="#4E4C49"/>
</svg>
