<svg id="Video-Chat--Streamline-Carbon.svg" xmlns="http://www.w3.org/2000/svg" viewBox="-0.5 -0.5 16 16" height="16" width="16"><desc>Video Chat Streamline Icon: https://streamlinehq.com</desc><defs></defs><title>video--chat</title><path d="M3.75 5.625h4.21875v0.9375H3.75Z" stroke-width="1"></path><path d="M3.75 7.96875h2.34375v0.9375H3.75Z" stroke-width="1"></path><path d="M9.84375 12.1875H1.875a0.938578125 0.938578125 0 0 1 -0.9375 -0.9375V3.75a0.938578125 0.938578125 0 0 1 0.9375 -0.9375h7.96875a0.938578125 0.938578125 0 0 1 0.9375 0.9375v1.9015312500000001l2.540109375 -1.8140625000000001A0.46851562500000005 0.46851562500000005 0 0 1 14.0625 4.21875v6.5625a0.46851562500000005 0.46851562500000005 0 0 1 -0.741140625 0.381328125L10.78125 9.34846875V11.25a0.938578125 0.938578125 0 0 1 -0.9375 0.9375ZM1.875 3.75v7.5004687500000005L9.84375 11.25v-2.8125a0.46851562500000005 0.46851562500000005 0 0 1 0.741140625 -0.381328125L13.125 9.87028125V5.12971875l-2.540109375 1.8140625000000001A0.46851562500000005 0.46851562500000005 0 0 1 9.84375 6.5625V3.75Z" stroke-width="1"></path><path id="_Transparent_Rectangle_" d="M0 0h15v15H0Z" fill="none" stroke-width="1"></path></svg>